<svg version="1.1" id="Layer_1" xmlns="http://www.w3.org/2000/svg" xmlns:xlink="http://www.w3.org/1999/xlink" x="0px" y="0px"
	 width="100%" viewBox="0 0 1074 263" enable-background="new 0 0 1074 263" xml:space="preserve">
<path fill="#FEFEFF" opacity="1.000000" stroke="none" 
	d="
M776.000000,264.000000 
	C517.333374,264.000000 259.166748,264.000000 1.000104,264.000000 
	C1.000069,176.333389 1.000069,88.666794 1.000035,1.000139 
	C358.999878,1.000093 716.999756,1.000093 1074.999756,1.000046 
	C1074.999756,88.666527 1074.999756,176.333054 1074.999878,263.999786 
	C975.500000,264.000000 876.000000,264.000000 776.000000,264.000000 
M567.424988,125.286217 
	C561.492065,119.077354 555.943481,119.528748 551.067078,126.555206 
	C548.219727,130.657928 545.526367,134.903076 542.327393,138.718262 
	C537.083740,144.971893 531.484741,150.927612 526.035645,157.008987 
	C525.450562,156.710648 524.865479,156.412323 524.280396,156.113983 
	C524.514771,151.861252 524.541077,147.584747 525.023621,143.360352 
	C526.322388,131.989029 529.284119,121.723450 537.935913,112.960533 
	C547.481384,103.292488 556.019714,92.429710 563.719971,81.210999 
	C568.799194,73.810852 572.526062,65.145767 575.219238,56.534378 
	C578.221436,46.934990 570.869202,39.509125 560.984131,41.301830 
	C554.238708,42.525146 548.564758,45.875324 545.007812,52.186710 
	C542.723206,56.240601 539.971802,60.032036 537.698486,64.091652 
	C531.442078,75.263763 524.611206,86.193092 519.375732,97.833786 
	C514.923279,107.733360 511.091400,117.618378 502.826904,125.219086 
	C499.087463,128.658173 498.993256,134.563370 502.628693,137.310883 
	C506.826141,140.483154 506.773743,143.919830 505.446716,148.543167 
	C499.566925,144.443542 494.940704,146.777313 489.775146,150.637619 
	C474.110565,162.344055 456.623749,165.520447 437.850067,159.565994 
	C427.698059,156.346069 425.751251,148.350433 432.757416,140.123947 
	C437.308380,144.213684 447.059967,146.980103 454.233704,145.420059 
	C470.112793,141.966873 484.530762,135.190552 496.697632,124.338226 
	C505.698730,116.309639 507.317566,105.261772 501.158386,97.589622 
	C495.000061,89.918541 486.963806,86.242271 477.039642,87.179321 
	C463.812347,88.428253 452.531799,94.447189 442.131226,102.138985 
	C428.676086,112.089836 417.268677,123.919334 411.827789,140.228592 
	C406.863464,155.109253 412.279785,168.217865 426.381134,174.779633 
	C440.357697,181.283356 455.122925,182.985641 470.224274,179.334946 
	C483.608490,176.099350 496.129517,170.921127 506.471863,160.967331 
	C510.139313,177.400833 523.232178,181.405838 536.265991,171.735626 
	C537.068115,171.140549 537.840332,170.501266 538.593079,169.844269 
	C549.985718,159.900696 559.325134,148.206512 567.008850,135.272766 
	C568.446838,132.852188 567.616943,129.084305 567.424988,125.286217 
M981.122681,151.471039 
	C981.972534,142.359940 983.042786,133.262360 983.603027,124.133484 
	C984.058105,116.718948 984.303711,109.243202 983.868835,101.840034 
	C983.595581,97.188362 980.241699,94.175262 975.661438,92.798073 
	C971.155823,91.443321 967.409546,92.840149 964.322510,96.067635 
	C962.144287,98.345093 960.080688,100.780281 958.289734,103.369087 
	C955.319580,107.662590 956.875488,113.768303 961.420471,116.346359 
	C962.817505,117.138855 964.309387,117.764252 965.749146,118.461960 
	C965.197510,122.942947 964.445374,127.049957 964.232605,131.184723 
	C963.738525,140.787231 962.529480,150.491653 963.391724,159.993088 
	C964.717651,174.604019 978.497437,181.671143 991.782349,175.410645 
	C995.015869,173.886856 998.029358,171.896088 1002.266602,169.479919 
	C1000.265625,174.641220 998.862976,178.856339 996.940857,182.819534 
	C996.426697,183.879654 994.346008,184.672012 992.950378,184.727295 
	C986.978027,184.963928 980.968506,184.542282 975.016968,184.974136 
	C956.581665,186.311859 940.694946,192.786377 929.850830,208.656647 
	C926.493408,213.570267 924.239319,218.897812 925.487000,225.065933 
	C927.541809,235.223969 935.693604,241.750992 948.031555,241.529572 
	C970.167297,241.132339 989.050598,233.805099 1001.522644,214.105087 
	C1007.547180,204.589188 1007.706055,204.689789 1018.911011,207.248947 
	C1024.783203,208.590134 1029.863281,205.895126 1031.050049,200.809143 
	C1032.360474,195.193069 1029.276855,190.669510 1023.069336,189.111389 
	C1020.590637,188.489212 1018.108826,187.879532 1015.744507,187.292969 
	C1018.641357,178.090225 1021.384277,169.557053 1024.012207,160.988586 
	C1028.780029,145.442795 1031.824585,129.407852 1038.792480,114.474411 
	C1041.586426,108.486488 1042.496704,101.354485 1042.919556,94.658333 
	C1043.084473,92.044975 1040.110229,88.339767 1037.558960,86.677086 
	C1034.442871,84.646286 1030.222290,85.140182 1027.566284,88.370682 
	C1025.628540,90.727623 1024.069824,93.567192 1023.029968,96.440514 
	C1022.087891,99.043945 1022.440552,102.099777 1021.596619,104.757431 
	C1015.420349,124.207321 1004.260193,140.563828 989.836609,154.774292 
	C987.851868,156.729660 985.088196,157.894470 981.947571,159.895142 
	C981.584229,156.571991 981.353210,154.458755 981.122681,151.471039 
M228.570145,167.728699 
	C232.648453,175.444702 239.046066,179.458450 247.763229,179.939835 
	C255.426636,180.363068 262.159943,177.695267 268.441986,173.736496 
	C272.201202,171.367554 275.691833,168.572388 279.335724,165.945312 
	C285.213013,179.359985 296.194366,185.287613 309.773804,181.936829 
	C319.350159,179.573837 326.228638,172.704590 332.751770,165.896942 
	C334.393951,164.183121 334.550995,159.784790 333.686676,157.187057 
	C331.745117,151.351654 324.865356,149.838837 319.629456,153.659058 
	C315.736084,156.499756 312.347137,160.166870 308.173798,162.436722 
	C305.773895,163.742020 302.133362,163.534653 299.316772,162.874893 
	C298.373199,162.653870 297.702545,158.880463 297.873077,156.810410 
	C298.184021,153.036224 298.651154,149.094406 300.046570,145.621689 
	C305.741486,131.449051 311.759918,117.405029 317.772614,103.362213 
	C319.915039,98.358444 319.000397,93.789612 314.913239,90.997467 
	C310.800781,88.188026 306.188690,88.926765 302.437225,93.015610 
	C301.779785,93.732155 301.184601,94.505798 300.422211,95.418915 
	C299.806213,94.849213 299.282257,94.465034 298.881531,93.979233 
	C291.238525,84.713348 284.400421,82.291122 273.964325,87.602310 
	C254.270050,97.625191 239.406113,112.812386 230.366852,133.163956 
	C225.518936,144.078857 223.459671,155.416580 228.570145,167.728699 
M700.770447,115.736519 
	C698.636169,112.169006 696.462219,108.624527 694.375671,105.029282 
	C689.789368,97.126717 685.007996,89.323631 680.776733,81.233879 
	C678.234314,76.373123 678.495911,71.158867 682.048340,66.635895 
	C686.188904,61.364113 691.583740,57.847897 698.119080,56.280739 
	C705.846741,54.427692 711.133972,57.529446 713.370911,65.070427 
	C714.316895,68.259247 715.078979,71.508110 716.149719,74.653076 
	C717.756836,79.373917 722.290894,81.970612 726.706421,80.909065 
	C731.767212,79.692390 734.852417,75.082314 733.894775,69.992210 
	C733.434814,67.547646 732.794495,65.134140 732.167419,62.724361 
	C726.870056,42.368877 711.243225,33.186829 691.165771,39.118298 
	C676.247559,43.525585 658.863647,55.854023 661.465332,78.047371 
	C662.414490,86.143944 666.485413,94.116791 670.260254,101.575127 
	C674.450806,109.854874 680.144470,117.358971 684.789490,125.427696 
	C689.692139,133.943726 690.031860,142.667419 683.545349,150.600006 
	C676.844910,158.794235 667.761169,161.464249 657.552917,159.899933 
	C650.547180,158.826416 647.517395,153.792114 649.864929,147.127655 
	C651.338562,142.944168 653.796265,139.095047 655.929199,135.159164 
	C658.524475,130.369965 657.519897,125.167030 653.328491,122.367973 
	C649.074768,119.527298 643.511169,120.250954 640.616516,124.909958 
	C637.306763,130.236984 634.028503,135.842484 632.191040,141.777328 
	C626.500244,160.157501 637.779846,177.033981 656.978394,178.658157 
	C673.935364,180.092697 688.724426,174.943619 699.028748,160.659943 
	C709.231384,146.517197 708.939819,131.552979 700.770447,115.736519 
M73.962784,63.223812 
	C77.588242,63.223812 81.213692,63.223812 85.531883,63.223812 
	C84.840942,65.401924 84.413353,67.124107 83.759094,68.755386 
	C75.774330,88.664108 67.897865,108.618019 59.701511,128.439545 
	C53.285358,143.955948 46.351505,159.257828 39.882565,174.753082 
	C37.754955,179.849396 40.053913,184.993027 44.567032,186.828644 
	C49.503136,188.836273 54.696293,186.756729 56.862659,181.522766 
	C72.309830,144.202133 87.789558,106.893898 102.930817,69.449051 
	C104.834618,64.740891 106.711075,62.579021 112.082672,62.998714 
	C123.458427,63.887527 134.722809,62.959095 145.209412,57.820892 
	C147.248596,56.821743 149.470810,55.664661 150.852280,53.965515 
	C153.712433,50.447639 153.539062,46.455791 150.654495,42.965252 
	C147.466949,39.108101 143.195892,38.561001 138.896912,40.639820 
	C131.327606,44.300041 123.407509,45.265694 115.117210,45.066307 
	C103.798676,44.794086 92.470390,44.942299 81.146530,44.871811 
	C69.727142,44.800724 58.485210,46.031509 47.964050,50.696690 
	C31.075741,58.185123 24.529284,70.819847 29.704781,89.138855 
	C30.837364,93.147705 33.506733,95.739456 37.899441,95.996040 
	C44.626350,96.388969 48.698997,91.346931 47.504341,84.176048 
	C45.665169,73.136467 47.957005,69.259193 58.880245,66.121750 
	C63.494442,64.796432 68.333336,64.253418 73.962784,63.223812 
M875.735840,102.833549 
	C869.896179,98.539673 864.617371,92.882607 858.112183,90.206291 
	C838.216370,82.020889 822.251099,93.023438 806.241150,102.638275 
	C806.103149,102.721191 806.000793,102.867867 805.890686,102.992569 
	C790.432983,120.507858 784.843506,140.718597 789.527527,163.635803 
	C789.900879,165.462814 791.010010,167.608627 792.461853,168.668655 
	C800.834351,174.781662 809.866882,179.117981 820.709167,177.336472 
	C844.924744,173.357574 863.937256,161.408157 876.187012,139.935898 
	C882.976685,128.034470 883.541626,115.591431 875.735840,102.833549 
M734.702515,110.719963 
	C735.654602,116.447838 740.018372,118.209976 745.346619,119.159256 
	C744.634888,121.264679 744.031433,122.956505 743.489502,124.667786 
	C739.552246,137.099319 736.173279,149.565262 738.906921,162.837585 
	C741.868652,177.217239 754.187134,183.075775 766.740845,175.513138 
	C770.948242,172.978470 774.638184,169.421326 778.128845,165.899597 
	C783.058838,160.925751 783.192810,154.657333 778.944519,150.925293 
	C774.671021,147.171173 769.399414,148.070099 764.515930,153.225464 
	C762.456238,155.399750 760.161682,157.351562 757.973938,159.404510 
	C757.541016,159.137085 757.108154,158.869644 756.675232,158.602203 
	C756.675232,155.818558 756.143005,152.908142 756.770447,150.273941 
	C759.070740,140.616638 761.243469,130.876297 764.439026,121.499405 
	C767.767578,111.732361 768.260254,111.900169 778.392456,111.900314 
	C781.057068,111.900352 783.724304,111.976311 786.385803,111.886116 
	C792.001038,111.695824 796.078430,107.709160 796.026123,102.563240 
	C795.974731,97.507133 792.176147,93.935196 786.543579,93.753677 
	C783.803162,93.665359 781.057556,93.738403 778.314270,93.738403 
	C778.023376,93.246811 777.732483,92.755211 777.441589,92.263618 
	C781.083374,87.247292 784.900208,82.347038 788.323425,77.185730 
	C792.758911,70.497986 791.025574,63.266193 784.451904,59.719109 
	C778.554871,56.537167 772.012756,58.780003 769.138184,66.159836 
	C765.242798,76.160225 757.861267,83.302612 750.765381,90.701897 
	C749.279663,92.251183 746.065063,93.176323 743.886047,92.840195 
	C736.210815,91.656242 730.774719,97.290718 732.949219,104.756248 
	C733.456055,106.496407 734.029236,108.217247 734.702515,110.719963 
M382.090149,153.627975 
	C388.481445,143.932114 394.655945,134.083710 401.336304,124.591263 
	C406.212036,117.663132 411.798279,111.238022 416.984467,104.524345 
	C420.862061,99.504723 420.576355,94.154327 416.409668,90.736229 
	C412.254883,87.327881 406.195312,88.296333 402.439667,93.074814 
	C396.684143,100.397850 391.009583,107.784500 385.266571,115.117462 
	C384.226471,116.445465 383.022888,117.645416 380.860870,120.058418 
	C380.860870,112.611557 381.434814,106.747551 380.748138,101.035080 
	C379.017700,86.639778 366.464966,79.281708 355.495453,86.863190 
	C347.704865,92.247589 340.959686,99.438210 334.701569,106.650169 
	C329.992889,112.076477 334.533844,120.839233 341.722076,120.654037 
	C344.572144,120.580605 347.778717,118.373322 350.075409,116.306763 
	C354.144714,112.645241 357.642700,108.348732 361.379730,104.317924 
	C361.907959,104.588051 362.436157,104.858170 362.964355,105.128296 
	C362.964355,107.885277 363.363251,110.712082 362.894958,113.387085 
	C360.924438,124.643433 358.739410,135.863174 356.542084,147.078522 
	C355.366058,153.081085 353.490234,159.005081 352.992645,165.051971 
	C352.804810,167.334549 355.063568,170.629272 357.160706,172.129791 
	C362.445251,175.910904 368.564056,174.452927 372.779083,168.613434 
	C376.072662,164.050491 378.766357,159.054550 382.090149,153.627975 
M194.804230,122.371803 
	C200.142426,114.736122 206.799973,109.507500 216.767914,110.113609 
	C218.062988,110.192360 219.427917,109.866287 220.696518,109.503777 
	C225.546356,108.117874 228.504196,103.914040 227.864166,99.465195 
	C227.221100,94.995056 223.257828,91.198639 218.556686,91.211441 
	C208.002548,91.240166 198.044189,93.360359 189.842636,100.657791 
	C187.649246,102.609383 185.489029,104.598267 182.880508,106.962563 
	C182.753738,105.496284 182.567642,104.581406 182.613510,103.678307 
	C182.973587,96.590988 179.588776,91.887039 173.801331,91.502113 
	C168.484314,91.148476 164.668228,95.511017 163.865570,102.408989 
	C162.116943,117.436279 160.282700,132.454361 158.357651,147.460052 
	C157.366089,155.189209 155.974380,162.867630 155.017761,170.600433 
	C154.496765,174.811752 156.427246,178.035782 160.249771,179.970871 
	C164.079193,181.909470 168.202713,181.654419 170.867889,178.622910 
	C173.465271,175.668549 175.882111,171.768524 176.483627,167.982651 
	C179.092255,151.563797 185.495987,136.795517 194.804230,122.371803 
M903.810120,172.977615 
	C905.573364,159.313324 909.882935,146.400574 916.103516,134.204285 
	C922.651062,121.366936 929.818970,108.891945 947.310486,109.923676 
	C947.472107,109.933220 947.638611,109.871597 947.802002,109.839035 
	C953.358521,108.731537 956.534668,104.853256 956.096863,99.710907 
	C955.676819,94.777794 951.529785,91.170265 946.122559,91.187691 
	C933.946167,91.226929 923.233948,94.964447 914.579895,103.834137 
	C913.723572,104.711746 912.723816,105.449356 911.067627,106.873863 
	C911.067627,104.178703 911.209106,102.418335 911.038940,100.688629 
	C910.652954,96.764488 908.863892,93.736549 905.034485,92.220474 
	C901.372620,90.770721 897.708496,91.350540 895.524292,94.370850 
	C893.699585,96.893951 892.641357,100.293861 892.196350,103.440239 
	C889.146606,124.999199 886.315063,146.589447 883.520996,168.183548 
	C883.251404,170.266830 883.351501,172.548096 883.918152,174.557541 
	C885.026306,178.486908 888.053223,180.638489 892.008606,180.935242 
	C897.480835,181.345825 901.070496,178.351273 903.810120,172.977615 
z"/>
<path fill="#10C0DF" opacity="1.000000" stroke="none" 
	d="
M567.629272,125.612190 
	C567.616943,129.084305 568.446838,132.852188 567.008850,135.272766 
	C559.325134,148.206512 549.985718,159.900696 538.593079,169.844269 
	C537.840332,170.501266 537.068115,171.140549 536.265991,171.735626 
	C523.232178,181.405838 510.139313,177.400833 506.471863,160.967331 
	C496.129517,170.921127 483.608490,176.099350 470.224274,179.334946 
	C455.122925,182.985641 440.357697,181.283356 426.381134,174.779633 
	C412.279785,168.217865 406.863464,155.109253 411.827789,140.228592 
	C417.268677,123.919334 428.676086,112.089836 442.131226,102.138985 
	C452.531799,94.447189 463.812347,88.428253 477.039642,87.179321 
	C486.963806,86.242271 495.000061,89.918541 501.158386,97.589622 
	C507.317566,105.261772 505.698730,116.309639 496.697632,124.338226 
	C484.530762,135.190552 470.112793,141.966873 454.233704,145.420059 
	C447.059967,146.980103 437.308380,144.213684 432.757416,140.123947 
	C425.751251,148.350433 427.698059,156.346069 437.850067,159.565994 
	C456.623749,165.520447 474.110565,162.344055 489.775146,150.637619 
	C494.940704,146.777313 499.566925,144.443542 505.446716,148.543167 
	C506.773743,143.919830 506.826141,140.483154 502.628693,137.310883 
	C498.993256,134.563370 499.087463,128.658173 502.826904,125.219086 
	C511.091400,117.618378 514.923279,107.733360 519.375732,97.833786 
	C524.611206,86.193092 531.442078,75.263763 537.698486,64.091652 
	C539.971802,60.032036 542.723206,56.240601 545.007812,52.186710 
	C548.564758,45.875324 554.238708,42.525146 560.984131,41.301830 
	C570.869202,39.509125 578.221436,46.934990 575.219238,56.534378 
	C572.526062,65.145767 568.799194,73.810852 563.719971,81.210999 
	C556.019714,92.429710 547.481384,103.292488 537.935913,112.960533 
	C529.284119,121.723450 526.322388,131.989029 525.023621,143.360352 
	C524.541077,147.584747 524.514771,151.861252 524.280396,156.113983 
	C524.865479,156.412323 525.450562,156.710648 526.035645,157.008987 
	C531.484741,150.927612 537.083740,144.971893 542.327393,138.718262 
	C545.526367,134.903076 548.219727,130.657928 551.067078,126.555206 
	C555.943481,119.528748 561.492065,119.077354 567.629272,125.612190 
M472.485596,118.975662 
	C477.404755,116.089218 482.579468,113.501228 485.711548,108.315170 
	C476.763641,102.255783 452.027649,112.843330 443.542023,126.635605 
	C447.564728,126.635605 451.219818,127.430649 454.328766,126.465836 
	C460.324646,124.605110 466.011993,121.750122 472.485596,118.975662 
z"/>
<path fill="#10C0DF" opacity="1.000000" stroke="none" 
	d="
M981.122437,151.908279 
	C981.353210,154.458755 981.584229,156.571991 981.947571,159.895142 
	C985.088196,157.894470 987.851868,156.729660 989.836609,154.774292 
	C1004.260193,140.563828 1015.420349,124.207321 1021.596619,104.757431 
	C1022.440552,102.099777 1022.087891,99.043945 1023.029968,96.440514 
	C1024.069824,93.567192 1025.628540,90.727623 1027.566284,88.370682 
	C1030.222290,85.140182 1034.442871,84.646286 1037.558960,86.677086 
	C1040.110229,88.339767 1043.084473,92.044975 1042.919556,94.658333 
	C1042.496704,101.354485 1041.586426,108.486488 1038.792480,114.474411 
	C1031.824585,129.407852 1028.780029,145.442795 1024.012207,160.988586 
	C1021.384277,169.557053 1018.641357,178.090225 1015.744507,187.292969 
	C1018.108826,187.879532 1020.590637,188.489212 1023.069336,189.111389 
	C1029.276855,190.669510 1032.360474,195.193069 1031.050049,200.809143 
	C1029.863281,205.895126 1024.783203,208.590134 1018.911011,207.248947 
	C1007.706055,204.689789 1007.547180,204.589188 1001.522644,214.105087 
	C989.050598,233.805099 970.167297,241.132339 948.031555,241.529572 
	C935.693604,241.750992 927.541809,235.223969 925.487000,225.065933 
	C924.239319,218.897812 926.493408,213.570267 929.850830,208.656647 
	C940.694946,192.786377 956.581665,186.311859 975.016968,184.974136 
	C980.968506,184.542282 986.978027,184.963928 992.950378,184.727295 
	C994.346008,184.672012 996.426697,183.879654 996.940857,182.819534 
	C998.862976,178.856339 1000.265625,174.641220 1002.266602,169.479919 
	C998.029358,171.896088 995.015869,173.886856 991.782349,175.410645 
	C978.497437,181.671143 964.717651,174.604019 963.391724,159.993088 
	C962.529480,150.491653 963.738525,140.787231 964.232605,131.184723 
	C964.445374,127.049957 965.197510,122.942947 965.749146,118.461960 
	C964.309387,117.764252 962.817505,117.138855 961.420471,116.346359 
	C956.875488,113.768303 955.319580,107.662590 958.289734,103.369087 
	C960.080688,100.780281 962.144287,98.345093 964.322510,96.067635 
	C967.409546,92.840149 971.155823,91.443321 975.661438,92.798073 
	C980.241699,94.175262 983.595581,97.188362 983.868835,101.840034 
	C984.303711,109.243202 984.058105,116.718948 983.603027,124.133484 
	C983.042786,133.262360 981.972534,142.359940 981.122437,151.908279 
M973.963013,203.217377 
	C961.358704,205.245728 950.186584,209.516479 943.601013,221.873489 
	C957.678101,226.791779 980.293213,216.468628 985.857361,203.107773 
	C982.166077,203.107773 978.513184,203.107773 973.963013,203.217377 
z"/>
<path fill="#10C0DF" opacity="1.000000" stroke="none" 
	d="
M228.383209,167.396179 
	C223.459671,155.416580 225.518936,144.078857 230.366852,133.163956 
	C239.406113,112.812386 254.270050,97.625191 273.964325,87.602310 
	C284.400421,82.291122 291.238525,84.713348 298.881531,93.979233 
	C299.282257,94.465034 299.806213,94.849213 300.422211,95.418915 
	C301.184601,94.505798 301.779785,93.732155 302.437225,93.015610 
	C306.188690,88.926765 310.800781,88.188026 314.913239,90.997467 
	C319.000397,93.789612 319.915039,98.358444 317.772614,103.362213 
	C311.759918,117.405029 305.741486,131.449051 300.046570,145.621689 
	C298.651154,149.094406 298.184021,153.036224 297.873077,156.810410 
	C297.702545,158.880463 298.373199,162.653870 299.316772,162.874893 
	C302.133362,163.534653 305.773895,163.742020 308.173798,162.436722 
	C312.347137,160.166870 315.736084,156.499756 319.629456,153.659058 
	C324.865356,149.838837 331.745117,151.351654 333.686676,157.187057 
	C334.550995,159.784790 334.393951,164.183121 332.751770,165.896942 
	C326.228638,172.704590 319.350159,179.573837 309.773804,181.936829 
	C296.194366,185.287613 285.213013,179.359985 279.335724,165.945312 
	C275.691833,168.572388 272.201202,171.367554 268.441986,173.736496 
	C262.159943,177.695267 255.426636,180.363068 247.763229,179.939835 
	C239.046066,179.458450 232.648453,175.444702 228.383209,167.396179 
M272.893677,144.366348 
	C281.673492,132.324356 285.850067,119.166122 282.891663,103.985771 
	C279.023346,105.909523 275.551086,107.927673 272.802948,110.671120 
	C266.338196,117.124771 260.356049,124.060562 253.921448,130.546051 
	C247.582657,136.934967 244.976257,144.822891 244.250000,153.414261 
	C243.617935,160.891281 246.834564,163.059677 254.003433,160.423172 
	C261.999207,157.482529 267.459808,151.472427 272.893677,144.366348 
z"/>
<path fill="#10C0DF" opacity="1.000000" stroke="none" 
	d="
M700.950623,116.063736 
	C708.939819,131.552979 709.231384,146.517197 699.028748,160.659943 
	C688.724426,174.943619 673.935364,180.092697 656.978394,178.658157 
	C637.779846,177.033981 626.500244,160.157501 632.191040,141.777328 
	C634.028503,135.842484 637.306763,130.236984 640.616516,124.909958 
	C643.511169,120.250954 649.074768,119.527298 653.328491,122.367973 
	C657.519897,125.167030 658.524475,130.369965 655.929199,135.159164 
	C653.796265,139.095047 651.338562,142.944168 649.864929,147.127655 
	C647.517395,153.792114 650.547180,158.826416 657.552917,159.899933 
	C667.761169,161.464249 676.844910,158.794235 683.545349,150.600006 
	C690.031860,142.667419 689.692139,133.943726 684.789490,125.427696 
	C680.144470,117.358971 674.450806,109.854874 670.260254,101.575127 
	C666.485413,94.116791 662.414490,86.143944 661.465332,78.047371 
	C658.863647,55.854023 676.247559,43.525585 691.165771,39.118298 
	C711.243225,33.186829 726.870056,42.368877 732.167419,62.724361 
	C732.794495,65.134140 733.434814,67.547646 733.894775,69.992210 
	C734.852417,75.082314 731.767212,79.692390 726.706421,80.909065 
	C722.290894,81.970612 717.756836,79.373917 716.149719,74.653076 
	C715.078979,71.508110 714.316895,68.259247 713.370911,65.070427 
	C711.133972,57.529446 705.846741,54.427692 698.119080,56.280739 
	C691.583740,57.847897 686.188904,61.364113 682.048340,66.635895 
	C678.495911,71.158867 678.234314,76.373123 680.776733,81.233879 
	C685.007996,89.323631 689.789368,97.126717 694.375671,105.029282 
	C696.462219,108.624527 698.636169,112.169006 700.950623,116.063736 
z"/>
<path fill="#10C0DF" opacity="1.000000" stroke="none" 
	d="
M73.516441,63.289314 
	C68.333336,64.253418 63.494442,64.796432 58.880245,66.121750 
	C47.957005,69.259193 45.665169,73.136467 47.504341,84.176048 
	C48.698997,91.346931 44.626350,96.388969 37.899441,95.996040 
	C33.506733,95.739456 30.837364,93.147705 29.704781,89.138855 
	C24.529284,70.819847 31.075741,58.185123 47.964050,50.696690 
	C58.485210,46.031509 69.727142,44.800724 81.146530,44.871811 
	C92.470390,44.942299 103.798676,44.794086 115.117210,45.066307 
	C123.407509,45.265694 131.327606,44.300041 138.896912,40.639820 
	C143.195892,38.561001 147.466949,39.108101 150.654495,42.965252 
	C153.539062,46.455791 153.712433,50.447639 150.852280,53.965515 
	C149.470810,55.664661 147.248596,56.821743 145.209412,57.820892 
	C134.722809,62.959095 123.458427,63.887527 112.082672,62.998714 
	C106.711075,62.579021 104.834618,64.740891 102.930817,69.449051 
	C87.789558,106.893898 72.309830,144.202133 56.862659,181.522766 
	C54.696293,186.756729 49.503136,188.836273 44.567032,186.828644 
	C40.053913,184.993027 37.754955,179.849396 39.882565,174.753082 
	C46.351505,159.257828 53.285358,143.955948 59.701511,128.439545 
	C67.897865,108.618019 75.774330,88.664108 83.759094,68.755386 
	C84.413353,67.124107 84.840942,65.401924 85.531883,63.223812 
	C81.213692,63.223812 77.588242,63.223812 73.516441,63.289314 
z"/>
<path fill="#10C0DF" opacity="1.000000" stroke="none" 
	d="
M875.941650,103.133118 
	C883.541626,115.591431 882.976685,128.034470 876.187012,139.935898 
	C863.937256,161.408157 844.924744,173.357574 820.709167,177.336472 
	C809.866882,179.117981 800.834351,174.781662 792.461853,168.668655 
	C791.010010,167.608627 789.900879,165.462814 789.527527,163.635803 
	C784.843506,140.718597 790.432983,120.507858 805.890686,102.992569 
	C806.000793,102.867867 806.103149,102.721191 806.241150,102.638275 
	C822.251099,93.023438 838.216370,82.020889 858.112183,90.206291 
	C864.617371,92.882607 869.896179,98.539673 875.941650,103.133118 
M817.157959,126.723076 
	C814.131531,134.059738 810.301941,141.185104 808.300903,148.791489 
	C806.232300,156.654968 808.909058,159.503845 816.899963,159.009644 
	C832.803223,158.026062 845.292419,150.049942 855.097412,138.036697 
	C858.450745,133.928146 860.961243,128.664459 862.267761,123.524582 
	C863.074707,120.349907 861.960815,115.506477 859.839539,112.985527 
	C853.008240,104.866966 842.330627,103.207878 833.799438,109.500732 
	C827.646851,114.039139 822.915833,120.504890 817.157959,126.723076 
z"/>
<path fill="#10C0DF" opacity="1.000000" stroke="none" 
	d="
M734.637207,110.333473 
	C734.029236,108.217247 733.456055,106.496407 732.949219,104.756248 
	C730.774719,97.290718 736.210815,91.656242 743.886047,92.840195 
	C746.065063,93.176323 749.279663,92.251183 750.765381,90.701897 
	C757.861267,83.302612 765.242798,76.160225 769.138184,66.159836 
	C772.012756,58.780003 778.554871,56.537167 784.451904,59.719109 
	C791.025574,63.266193 792.758911,70.497986 788.323425,77.185730 
	C784.900208,82.347038 781.083374,87.247292 777.441589,92.263618 
	C777.732483,92.755211 778.023376,93.246811 778.314270,93.738403 
	C781.057556,93.738403 783.803162,93.665359 786.543579,93.753677 
	C792.176147,93.935196 795.974731,97.507133 796.026123,102.563240 
	C796.078430,107.709160 792.001038,111.695824 786.385803,111.886116 
	C783.724304,111.976311 781.057068,111.900352 778.392456,111.900314 
	C768.260254,111.900169 767.767578,111.732361 764.439026,121.499405 
	C761.243469,130.876297 759.070740,140.616638 756.770447,150.273941 
	C756.143005,152.908142 756.675232,155.818558 756.675232,158.602203 
	C757.108154,158.869644 757.541016,159.137085 757.973938,159.404510 
	C760.161682,157.351562 762.456238,155.399750 764.515930,153.225464 
	C769.399414,148.070099 774.671021,147.171173 778.944519,150.925293 
	C783.192810,154.657333 783.058838,160.925751 778.128845,165.899597 
	C774.638184,169.421326 770.948242,172.978470 766.740845,175.513138 
	C754.187134,183.075775 741.868652,177.217239 738.906921,162.837585 
	C736.173279,149.565262 739.552246,137.099319 743.489502,124.667786 
	C744.031433,122.956505 744.634888,121.264679 745.346619,119.159256 
	C740.018372,118.209976 735.654602,116.447838 734.637207,110.333473 
z"/>
<path fill="#10C0DF" opacity="1.000000" stroke="none" 
	d="
M381.908386,153.939484 
	C378.766357,159.054550 376.072662,164.050491 372.779083,168.613434 
	C368.564056,174.452927 362.445251,175.910904 357.160706,172.129791 
	C355.063568,170.629272 352.804810,167.334549 352.992645,165.051971 
	C353.490234,159.005081 355.366058,153.081085 356.542084,147.078522 
	C358.739410,135.863174 360.924438,124.643433 362.894958,113.387085 
	C363.363251,110.712082 362.964355,107.885277 362.964355,105.128296 
	C362.436157,104.858170 361.907959,104.588051 361.379730,104.317924 
	C357.642700,108.348732 354.144714,112.645241 350.075409,116.306763 
	C347.778717,118.373322 344.572144,120.580605 341.722076,120.654037 
	C334.533844,120.839233 329.992889,112.076477 334.701569,106.650169 
	C340.959686,99.438210 347.704865,92.247589 355.495453,86.863190 
	C366.464966,79.281708 379.017700,86.639778 380.748138,101.035080 
	C381.434814,106.747551 380.860870,112.611557 380.860870,120.058418 
	C383.022888,117.645416 384.226471,116.445465 385.266571,115.117462 
	C391.009583,107.784500 396.684143,100.397850 402.439667,93.074814 
	C406.195312,88.296333 412.254883,87.327881 416.409668,90.736229 
	C420.576355,94.154327 420.862061,99.504723 416.984467,104.524345 
	C411.798279,111.238022 406.212036,117.663132 401.336304,124.591263 
	C394.655945,134.083710 388.481445,143.932114 381.908386,153.939484 
z"/>
<path fill="#10C0DF" opacity="1.000000" stroke="none" 
	d="
M194.580933,122.652245 
	C185.495987,136.795517 179.092255,151.563797 176.483627,167.982651 
	C175.882111,171.768524 173.465271,175.668549 170.867889,178.622910 
	C168.202713,181.654419 164.079193,181.909470 160.249771,179.970871 
	C156.427246,178.035782 154.496765,174.811752 155.017761,170.600433 
	C155.974380,162.867630 157.366089,155.189209 158.357651,147.460052 
	C160.282700,132.454361 162.116943,117.436279 163.865570,102.408989 
	C164.668228,95.511017 168.484314,91.148476 173.801331,91.502113 
	C179.588776,91.887039 182.973587,96.590988 182.613510,103.678307 
	C182.567642,104.581406 182.753738,105.496284 182.880508,106.962563 
	C185.489029,104.598267 187.649246,102.609383 189.842636,100.657791 
	C198.044189,93.360359 208.002548,91.240166 218.556686,91.211441 
	C223.257828,91.198639 227.221100,94.995056 227.864166,99.465195 
	C228.504196,103.914040 225.546356,108.117874 220.696518,109.503777 
	C219.427917,109.866287 218.062988,110.192360 216.767914,110.113609 
	C206.799973,109.507500 200.142426,114.736122 194.580933,122.652245 
z"/>
<path fill="#10C0DF" opacity="1.000000" stroke="none" 
	d="
M903.638550,173.329269 
	C901.070496,178.351273 897.480835,181.345825 892.008606,180.935242 
	C888.053223,180.638489 885.026306,178.486908 883.918152,174.557541 
	C883.351501,172.548096 883.251404,170.266830 883.520996,168.183548 
	C886.315063,146.589447 889.146606,124.999199 892.196350,103.440239 
	C892.641357,100.293861 893.699585,96.893951 895.524292,94.370850 
	C897.708496,91.350540 901.372620,90.770721 905.034485,92.220474 
	C908.863892,93.736549 910.652954,96.764488 911.038940,100.688629 
	C911.209106,102.418335 911.067627,104.178703 911.067627,106.873863 
	C912.723816,105.449356 913.723572,104.711746 914.579895,103.834137 
	C923.233948,94.964447 933.946167,91.226929 946.122559,91.187691 
	C951.529785,91.170265 955.676819,94.777794 956.096863,99.710907 
	C956.534668,104.853256 953.358521,108.731537 947.802002,109.839035 
	C947.638611,109.871597 947.472107,109.933220 947.310486,109.923676 
	C929.818970,108.891945 922.651062,121.366936 916.103516,134.204285 
	C909.882935,146.400574 905.573364,159.313324 903.638550,173.329269 
z"/>
<path fill="#F8FAFC" opacity="1.000000" stroke="none" 
	d="
M472.156433,119.141525 
	C466.011993,121.750122 460.324646,124.605110 454.328766,126.465836 
	C451.219818,127.430649 447.564728,126.635605 443.542023,126.635605 
	C452.027649,112.843330 476.763641,102.255783 485.711548,108.315170 
	C482.579468,113.501228 477.404755,116.089218 472.156433,119.141525 
z"/>
<path fill="#F9FBFD" opacity="1.000000" stroke="none" 
	d="
M974.411682,203.162567 
	C978.513184,203.107773 982.166077,203.107773 985.857361,203.107773 
	C980.293213,216.468628 957.678101,226.791779 943.601013,221.873489 
	C950.186584,209.516479 961.358704,205.245728 974.411682,203.162567 
z"/>
<path fill="#FBFCFD" opacity="1.000000" stroke="none" 
	d="
M272.675049,144.649689 
	C267.459808,151.472427 261.999207,157.482529 254.003433,160.423172 
	C246.834564,163.059677 243.617935,160.891281 244.250000,153.414261 
	C244.976257,144.822891 247.582657,136.934967 253.921448,130.546051 
	C260.356049,124.060562 266.338196,117.124771 272.802948,110.671120 
	C275.551086,107.927673 279.023346,105.909523 282.891663,103.985771 
	C285.850067,119.166122 281.673492,132.324356 272.675049,144.649689 
z"/>
<path fill="#FCFDFE" opacity="1.000000" stroke="none" 
	d="
M817.354370,126.417038 
	C822.915833,120.504890 827.646851,114.039139 833.799438,109.500732 
	C842.330627,103.207878 853.008240,104.866966 859.839539,112.985527 
	C861.960815,115.506477 863.074707,120.349907 862.267761,123.524582 
	C860.961243,128.664459 858.450745,133.928146 855.097412,138.036697 
	C845.292419,150.049942 832.803223,158.026062 816.899963,159.009644 
	C808.909058,159.503845 806.232300,156.654968 808.300903,148.791489 
	C810.301941,141.185104 814.131531,134.059738 817.354370,126.417038 
z"/>
</svg>